<mxfile host="app.diagrams.net" agent="Mozilla/5.0 (Macintosh; Intel Mac OS X 10_15_7) AppleWebKit/537.36 (KHTML, like Gecko) Chrome/137.0.0.0 Safari/537.36" version="27.1.6">
  <diagram name="Page-1" id="LExq1lEhHm_FoBmojLbs">
    <mxGraphModel dx="632" dy="362" grid="1" gridSize="10" guides="1" tooltips="1" connect="1" arrows="1" fold="1" page="1" pageScale="1" pageWidth="850" pageHeight="1100" math="0" shadow="0">
      <root>
        <mxCell id="0" />
        <mxCell id="1" parent="0" />
        <mxCell id="OI1ush0Sum9m7_NIzRbb-38" style="edgeStyle=orthogonalEdgeStyle;rounded=0;orthogonalLoop=1;jettySize=auto;html=1;exitX=0.193;exitY=0.998;exitDx=0;exitDy=0;exitPerimeter=0;entryX=0.25;entryY=0;entryDx=0;entryDy=0;" edge="1" parent="1" source="OI1ush0Sum9m7_NIzRbb-34" target="OI1ush0Sum9m7_NIzRbb-3">
          <mxGeometry relative="1" as="geometry">
            <mxPoint x="306.6300000000001" y="249.99999999999997" as="sourcePoint" />
            <mxPoint x="400" y="430" as="targetPoint" />
            <Array as="points">
              <mxPoint x="289" y="280" />
              <mxPoint x="306" y="280" />
              <mxPoint x="306" y="420" />
              <mxPoint x="441" y="420" />
            </Array>
          </mxGeometry>
        </mxCell>
        <mxCell id="OI1ush0Sum9m7_NIzRbb-44" style="edgeStyle=orthogonalEdgeStyle;rounded=0;orthogonalLoop=1;jettySize=auto;html=1;exitX=0.5;exitY=1;exitDx=0;exitDy=0;entryX=-0.001;entryY=0.127;entryDx=0;entryDy=0;entryPerimeter=0;" edge="1" parent="1" source="OI1ush0Sum9m7_NIzRbb-33" target="OI1ush0Sum9m7_NIzRbb-6">
          <mxGeometry relative="1" as="geometry">
            <mxPoint x="410" y="315" as="targetPoint" />
            <Array as="points">
              <mxPoint x="360" y="315" />
              <mxPoint x="380" y="315" />
            </Array>
          </mxGeometry>
        </mxCell>
        <mxCell id="OI1ush0Sum9m7_NIzRbb-33" value="" style="shape=table;startSize=0;container=1;collapsible=0;childLayout=tableLayout;" vertex="1" parent="1">
          <mxGeometry x="249" y="210" width="206" height="20" as="geometry" />
        </mxCell>
        <mxCell id="OI1ush0Sum9m7_NIzRbb-34" value="" style="shape=tableRow;horizontal=0;startSize=0;swimlaneHead=0;swimlaneBody=0;strokeColor=inherit;top=0;left=0;bottom=0;right=0;collapsible=0;dropTarget=0;fillColor=none;points=[[0,0.5],[1,0.5]];portConstraint=eastwest;" vertex="1" parent="OI1ush0Sum9m7_NIzRbb-33">
          <mxGeometry width="206" height="20" as="geometry" />
        </mxCell>
        <mxCell id="OI1ush0Sum9m7_NIzRbb-35" value="Tag" style="shape=partialRectangle;html=1;whiteSpace=wrap;connectable=0;strokeColor=inherit;overflow=hidden;fillColor=none;top=0;left=0;bottom=0;right=0;pointerEvents=1;" vertex="1" parent="OI1ush0Sum9m7_NIzRbb-34">
          <mxGeometry width="81" height="20" as="geometry">
            <mxRectangle width="81" height="20" as="alternateBounds" />
          </mxGeometry>
        </mxCell>
        <mxCell id="OI1ush0Sum9m7_NIzRbb-36" value="Set" style="shape=partialRectangle;html=1;whiteSpace=wrap;connectable=0;strokeColor=inherit;overflow=hidden;fillColor=none;top=0;left=0;bottom=0;right=0;pointerEvents=1;" vertex="1" parent="OI1ush0Sum9m7_NIzRbb-34">
          <mxGeometry x="81" width="59" height="20" as="geometry">
            <mxRectangle width="59" height="20" as="alternateBounds" />
          </mxGeometry>
        </mxCell>
        <mxCell id="OI1ush0Sum9m7_NIzRbb-37" value="Block" style="shape=partialRectangle;html=1;whiteSpace=wrap;connectable=0;strokeColor=inherit;overflow=hidden;fillColor=none;top=0;left=0;bottom=0;right=0;pointerEvents=1;fontSize=6;" vertex="1" parent="OI1ush0Sum9m7_NIzRbb-34">
          <mxGeometry x="140" width="21" height="20" as="geometry">
            <mxRectangle width="21" height="20" as="alternateBounds" />
          </mxGeometry>
        </mxCell>
        <mxCell id="OI1ush0Sum9m7_NIzRbb-113" value="Byte" style="shape=partialRectangle;html=1;whiteSpace=wrap;connectable=0;strokeColor=inherit;overflow=hidden;fillColor=none;top=0;left=0;bottom=0;right=0;pointerEvents=1;fontSize=6;" vertex="1" parent="OI1ush0Sum9m7_NIzRbb-34">
          <mxGeometry x="161" width="45" height="20" as="geometry">
            <mxRectangle width="45" height="20" as="alternateBounds" />
          </mxGeometry>
        </mxCell>
        <mxCell id="OI1ush0Sum9m7_NIzRbb-41" value="" style="group" vertex="1" connectable="0" parent="1">
          <mxGeometry x="400" y="270" width="230" height="220" as="geometry" />
        </mxCell>
        <mxCell id="OI1ush0Sum9m7_NIzRbb-19" value="Valid" style="text;html=1;align=center;verticalAlign=middle;resizable=0;points=[];autosize=1;strokeColor=none;fillColor=none;fontSize=8;" vertex="1" parent="OI1ush0Sum9m7_NIzRbb-41">
          <mxGeometry x="9" y="16" width="40" height="20" as="geometry" />
        </mxCell>
        <mxCell id="OI1ush0Sum9m7_NIzRbb-20" value="Tag" style="text;html=1;align=center;verticalAlign=middle;resizable=0;points=[];autosize=1;strokeColor=none;fillColor=none;fontSize=8;" vertex="1" parent="OI1ush0Sum9m7_NIzRbb-41">
          <mxGeometry x="45.99948717948718" y="16" width="40" height="20" as="geometry" />
        </mxCell>
        <mxCell id="OI1ush0Sum9m7_NIzRbb-21" value="Data" style="text;html=1;align=center;verticalAlign=middle;resizable=0;points=[];autosize=1;strokeColor=none;fillColor=none;fontSize=8;" vertex="1" parent="OI1ush0Sum9m7_NIzRbb-41">
          <mxGeometry x="134.84615384615384" y="16" width="40" height="20" as="geometry" />
        </mxCell>
        <mxCell id="OI1ush0Sum9m7_NIzRbb-40" value="" style="group" vertex="1" connectable="0" parent="OI1ush0Sum9m7_NIzRbb-41">
          <mxGeometry x="17.692307692307693" y="33.333333333333336" width="212.30769230769232" height="176.66666666666669" as="geometry" />
        </mxCell>
        <mxCell id="OI1ush0Sum9m7_NIzRbb-5" value="Mux" style="shape=trapezoid;perimeter=trapezoidPerimeter;whiteSpace=wrap;html=1;fixedSize=1;direction=west;" vertex="1" parent="OI1ush0Sum9m7_NIzRbb-40">
          <mxGeometry x="110" y="140" width="80" height="26.67" as="geometry" />
        </mxCell>
        <mxCell id="OI1ush0Sum9m7_NIzRbb-28" style="edgeStyle=orthogonalEdgeStyle;rounded=0;orthogonalLoop=1;jettySize=auto;html=1;exitX=0.611;exitY=0.984;exitDx=0;exitDy=0;entryX=0.71;entryY=0.997;entryDx=0;entryDy=0;entryPerimeter=0;exitPerimeter=0;" edge="1" parent="OI1ush0Sum9m7_NIzRbb-40" source="OI1ush0Sum9m7_NIzRbb-15">
          <mxGeometry relative="1" as="geometry">
            <mxPoint x="130.2" y="140.08000999999985" as="targetPoint" />
            <mxPoint x="109.30538461538463" y="88.88888888888889" as="sourcePoint" />
            <Array as="points">
              <mxPoint x="130" y="90" />
              <mxPoint x="130" y="90" />
              <mxPoint x="130" y="115" />
              <mxPoint x="130" y="115" />
            </Array>
          </mxGeometry>
        </mxCell>
        <mxCell id="OI1ush0Sum9m7_NIzRbb-6" value="" style="shape=table;startSize=0;container=1;collapsible=0;childLayout=tableLayout;fontSize=16;" vertex="1" parent="OI1ush0Sum9m7_NIzRbb-40">
          <mxGeometry width="212.30769230769232" height="88.55555555555563" as="geometry" />
        </mxCell>
        <mxCell id="OI1ush0Sum9m7_NIzRbb-7" value="" style="shape=tableRow;horizontal=0;startSize=0;swimlaneHead=0;swimlaneBody=0;strokeColor=inherit;top=0;left=0;bottom=0;right=0;collapsible=0;dropTarget=0;fillColor=none;points=[[0,0.5],[1,0.5]];portConstraint=eastwest;fontSize=16;" vertex="1" parent="OI1ush0Sum9m7_NIzRbb-6">
          <mxGeometry width="212.30769230769232" height="22" as="geometry" />
        </mxCell>
        <mxCell id="OI1ush0Sum9m7_NIzRbb-8" value="" style="shape=partialRectangle;html=1;whiteSpace=wrap;connectable=0;strokeColor=inherit;overflow=hidden;fillColor=none;top=0;left=0;bottom=0;right=0;pointerEvents=1;fontSize=16;" vertex="1" parent="OI1ush0Sum9m7_NIzRbb-7">
          <mxGeometry width="22" height="22" as="geometry">
            <mxRectangle width="22" height="22" as="alternateBounds" />
          </mxGeometry>
        </mxCell>
        <mxCell id="OI1ush0Sum9m7_NIzRbb-9" value="" style="shape=partialRectangle;html=1;whiteSpace=wrap;connectable=0;strokeColor=inherit;overflow=hidden;fillColor=none;top=0;left=0;bottom=0;right=0;pointerEvents=1;fontSize=16;" vertex="1" parent="OI1ush0Sum9m7_NIzRbb-7">
          <mxGeometry x="22" width="55" height="22" as="geometry">
            <mxRectangle width="55" height="22" as="alternateBounds" />
          </mxGeometry>
        </mxCell>
        <mxCell id="OI1ush0Sum9m7_NIzRbb-10" value="" style="shape=partialRectangle;html=1;whiteSpace=wrap;connectable=0;strokeColor=inherit;overflow=hidden;fillColor=none;top=0;left=0;bottom=0;right=0;pointerEvents=1;fontSize=16;" vertex="1" parent="OI1ush0Sum9m7_NIzRbb-7">
          <mxGeometry x="77" width="135" height="22" as="geometry">
            <mxRectangle width="135" height="22" as="alternateBounds" />
          </mxGeometry>
        </mxCell>
        <mxCell id="OI1ush0Sum9m7_NIzRbb-11" value="" style="shape=tableRow;horizontal=0;startSize=0;swimlaneHead=0;swimlaneBody=0;strokeColor=inherit;top=0;left=0;bottom=0;right=0;collapsible=0;dropTarget=0;fillColor=none;points=[[0,0.5],[1,0.5]];portConstraint=eastwest;fontSize=16;" vertex="1" parent="OI1ush0Sum9m7_NIzRbb-6">
          <mxGeometry y="22" width="212.30769230769232" height="22" as="geometry" />
        </mxCell>
        <mxCell id="OI1ush0Sum9m7_NIzRbb-12" value="" style="shape=partialRectangle;html=1;whiteSpace=wrap;connectable=0;strokeColor=inherit;overflow=hidden;fillColor=none;top=0;left=0;bottom=0;right=0;pointerEvents=1;fontSize=16;" vertex="1" parent="OI1ush0Sum9m7_NIzRbb-11">
          <mxGeometry width="22" height="22" as="geometry">
            <mxRectangle width="22" height="22" as="alternateBounds" />
          </mxGeometry>
        </mxCell>
        <mxCell id="OI1ush0Sum9m7_NIzRbb-13" value="" style="shape=partialRectangle;html=1;whiteSpace=wrap;connectable=0;strokeColor=inherit;overflow=hidden;fillColor=none;top=0;left=0;bottom=0;right=0;pointerEvents=1;fontSize=16;" vertex="1" parent="OI1ush0Sum9m7_NIzRbb-11">
          <mxGeometry x="22" width="55" height="22" as="geometry">
            <mxRectangle width="55" height="22" as="alternateBounds" />
          </mxGeometry>
        </mxCell>
        <mxCell id="OI1ush0Sum9m7_NIzRbb-14" value="" style="shape=partialRectangle;html=1;whiteSpace=wrap;connectable=0;strokeColor=inherit;overflow=hidden;fillColor=none;top=0;left=0;bottom=0;right=0;pointerEvents=1;fontSize=16;" vertex="1" parent="OI1ush0Sum9m7_NIzRbb-11">
          <mxGeometry x="77" width="135" height="22" as="geometry">
            <mxRectangle width="135" height="22" as="alternateBounds" />
          </mxGeometry>
        </mxCell>
        <mxCell id="OI1ush0Sum9m7_NIzRbb-22" value="" style="shape=tableRow;horizontal=0;startSize=0;swimlaneHead=0;swimlaneBody=0;strokeColor=inherit;top=0;left=0;bottom=0;right=0;collapsible=0;dropTarget=0;fillColor=none;points=[[0,0.5],[1,0.5]];portConstraint=eastwest;fontSize=16;" vertex="1" parent="OI1ush0Sum9m7_NIzRbb-6">
          <mxGeometry y="44" width="212.30769230769232" height="23" as="geometry" />
        </mxCell>
        <mxCell id="OI1ush0Sum9m7_NIzRbb-23" value="" style="shape=partialRectangle;html=1;whiteSpace=wrap;connectable=0;strokeColor=inherit;overflow=hidden;fillColor=none;top=0;left=0;bottom=0;right=0;pointerEvents=1;fontSize=16;" vertex="1" parent="OI1ush0Sum9m7_NIzRbb-22">
          <mxGeometry width="22" height="23" as="geometry">
            <mxRectangle width="22" height="23" as="alternateBounds" />
          </mxGeometry>
        </mxCell>
        <mxCell id="OI1ush0Sum9m7_NIzRbb-24" value="" style="shape=partialRectangle;html=1;whiteSpace=wrap;connectable=0;strokeColor=inherit;overflow=hidden;fillColor=none;top=0;left=0;bottom=0;right=0;pointerEvents=1;fontSize=16;" vertex="1" parent="OI1ush0Sum9m7_NIzRbb-22">
          <mxGeometry x="22" width="55" height="23" as="geometry">
            <mxRectangle width="55" height="23" as="alternateBounds" />
          </mxGeometry>
        </mxCell>
        <mxCell id="OI1ush0Sum9m7_NIzRbb-25" value="" style="shape=partialRectangle;html=1;whiteSpace=wrap;connectable=0;strokeColor=inherit;overflow=hidden;fillColor=none;top=0;left=0;bottom=0;right=0;pointerEvents=1;fontSize=16;" vertex="1" parent="OI1ush0Sum9m7_NIzRbb-22">
          <mxGeometry x="77" width="135" height="23" as="geometry">
            <mxRectangle width="135" height="23" as="alternateBounds" />
          </mxGeometry>
        </mxCell>
        <mxCell id="OI1ush0Sum9m7_NIzRbb-15" value="" style="shape=tableRow;horizontal=0;startSize=0;swimlaneHead=0;swimlaneBody=0;strokeColor=inherit;top=0;left=0;bottom=0;right=0;collapsible=0;dropTarget=0;fillColor=none;points=[[0,0.5],[1,0.5]];portConstraint=eastwest;fontSize=16;" vertex="1" parent="OI1ush0Sum9m7_NIzRbb-6">
          <mxGeometry y="67" width="212.30769230769232" height="22" as="geometry" />
        </mxCell>
        <mxCell id="OI1ush0Sum9m7_NIzRbb-16" value="" style="shape=partialRectangle;html=1;whiteSpace=wrap;connectable=0;strokeColor=inherit;overflow=hidden;fillColor=none;top=0;left=0;bottom=0;right=0;pointerEvents=1;fontSize=16;" vertex="1" parent="OI1ush0Sum9m7_NIzRbb-15">
          <mxGeometry width="22" height="22" as="geometry">
            <mxRectangle width="22" height="22" as="alternateBounds" />
          </mxGeometry>
        </mxCell>
        <mxCell id="OI1ush0Sum9m7_NIzRbb-17" value="" style="shape=partialRectangle;html=1;whiteSpace=wrap;connectable=0;strokeColor=inherit;overflow=hidden;fillColor=none;top=0;left=0;bottom=0;right=0;pointerEvents=1;fontSize=16;" vertex="1" parent="OI1ush0Sum9m7_NIzRbb-15">
          <mxGeometry x="22" width="55" height="22" as="geometry">
            <mxRectangle width="55" height="22" as="alternateBounds" />
          </mxGeometry>
        </mxCell>
        <mxCell id="OI1ush0Sum9m7_NIzRbb-18" value="" style="shape=partialRectangle;html=1;whiteSpace=wrap;connectable=0;strokeColor=inherit;overflow=hidden;fillColor=none;top=0;left=0;bottom=0;right=0;pointerEvents=1;fontSize=16;" vertex="1" parent="OI1ush0Sum9m7_NIzRbb-15">
          <mxGeometry x="77" width="135" height="22" as="geometry">
            <mxRectangle width="135" height="22" as="alternateBounds" />
          </mxGeometry>
        </mxCell>
        <mxCell id="OI1ush0Sum9m7_NIzRbb-31" style="edgeStyle=orthogonalEdgeStyle;rounded=0;orthogonalLoop=1;jettySize=auto;html=1;exitX=0.5;exitY=1;exitDx=0;exitDy=0;entryX=0.181;entryY=0.986;entryDx=0;entryDy=0;entryPerimeter=0;" edge="1" parent="OI1ush0Sum9m7_NIzRbb-40" target="OI1ush0Sum9m7_NIzRbb-5">
          <mxGeometry relative="1" as="geometry">
            <mxPoint x="187.53846153846155" y="122.22222222222221" as="targetPoint" />
            <mxPoint x="181.64102564102566" y="88.88888888888889" as="sourcePoint" />
            <Array as="points">
              <mxPoint x="176" y="89" />
              <mxPoint x="176" y="115" />
              <mxPoint x="175" y="115" />
            </Array>
          </mxGeometry>
        </mxCell>
        <mxCell id="OI1ush0Sum9m7_NIzRbb-3" value="&lt;font style=&quot;font-size: 7px;&quot;&gt;Comparator&lt;/font&gt;" style="rounded=0;whiteSpace=wrap;html=1;" vertex="1" parent="OI1ush0Sum9m7_NIzRbb-40">
          <mxGeometry x="10.997692307692319" y="146.66666666666669" width="50" height="30" as="geometry" />
        </mxCell>
        <mxCell id="OI1ush0Sum9m7_NIzRbb-116" value="4 bytes" style="text;html=1;align=center;verticalAlign=middle;resizable=0;points=[];autosize=1;strokeColor=none;fillColor=none;fontSize=6;" vertex="1" parent="OI1ush0Sum9m7_NIzRbb-40">
          <mxGeometry x="90.15769230769234" y="88.88666666666671" width="40" height="20" as="geometry" />
        </mxCell>
        <mxCell id="OI1ush0Sum9m7_NIzRbb-117" value="&lt;font style=&quot;font-size: 4px;&quot;&gt;1 bit&lt;/font&gt;" style="text;html=1;align=center;verticalAlign=middle;resizable=0;points=[];autosize=1;strokeColor=none;fillColor=none;fontSize=8;" vertex="1" parent="OI1ush0Sum9m7_NIzRbb-40">
          <mxGeometry x="4.307692307692321" y="88.55666666666667" width="30" height="20" as="geometry" />
        </mxCell>
        <mxCell id="OI1ush0Sum9m7_NIzRbb-118" value="" style="endArrow=none;html=1;rounded=0;" edge="1" parent="OI1ush0Sum9m7_NIzRbb-40">
          <mxGeometry width="50" height="50" relative="1" as="geometry">
            <mxPoint x="5.307692307692321" y="102.88666666666671" as="sourcePoint" />
            <mxPoint x="19.30769230769232" y="92.88666666666671" as="targetPoint" />
          </mxGeometry>
        </mxCell>
        <mxCell id="OI1ush0Sum9m7_NIzRbb-51" style="edgeStyle=orthogonalEdgeStyle;rounded=0;orthogonalLoop=1;jettySize=auto;html=1;entryX=0;entryY=0.5;entryDx=0;entryDy=0;" edge="1" parent="1">
          <mxGeometry relative="1" as="geometry">
            <mxPoint x="400" y="230" as="sourcePoint" />
            <mxPoint x="597.6823076923077" y="456.6683333333333" as="targetPoint" />
            <Array as="points">
              <mxPoint x="399.99" y="269" />
              <mxPoint x="649.99" y="269" />
              <mxPoint x="649.99" y="457" />
            </Array>
          </mxGeometry>
        </mxCell>
        <mxCell id="OI1ush0Sum9m7_NIzRbb-52" style="edgeStyle=orthogonalEdgeStyle;rounded=0;orthogonalLoop=1;jettySize=auto;html=1;exitX=0.245;exitY=0.978;exitDx=0;exitDy=0;exitPerimeter=0;" edge="1" parent="1">
          <mxGeometry relative="1" as="geometry">
            <mxPoint x="469.70769230769224" y="391.8493333333332" as="sourcePoint" />
            <mxPoint x="470" y="450" as="targetPoint" />
            <Array as="points">
              <mxPoint x="470" y="410" />
              <mxPoint x="470" y="450" />
            </Array>
          </mxGeometry>
        </mxCell>
        <mxCell id="OI1ush0Sum9m7_NIzRbb-53" value="" style="verticalLabelPosition=bottom;shadow=0;dashed=0;align=center;html=1;verticalAlign=top;shape=mxgraph.electrical.logic_gates.buffer2;rotation=90;" vertex="1" parent="1">
          <mxGeometry x="541.83" y="510" width="53.67" height="40" as="geometry" />
        </mxCell>
        <mxCell id="OI1ush0Sum9m7_NIzRbb-60" value="" style="endArrow=none;html=1;rounded=0;entryX=0.492;entryY=0.761;entryDx=0;entryDy=0;entryPerimeter=0;" edge="1" parent="1" target="OI1ush0Sum9m7_NIzRbb-53">
          <mxGeometry width="50" height="50" relative="1" as="geometry">
            <mxPoint x="430" y="530" as="sourcePoint" />
            <mxPoint x="564" y="531" as="targetPoint" />
          </mxGeometry>
        </mxCell>
        <mxCell id="OI1ush0Sum9m7_NIzRbb-61" value="" style="endArrow=none;html=1;rounded=0;exitX=0;exitY=0.5;exitDx=0;exitDy=0;" edge="1" parent="1">
          <mxGeometry width="50" height="50" relative="1" as="geometry">
            <mxPoint x="568.665" y="503.16499999999985" as="sourcePoint" />
            <mxPoint x="569" y="470" as="targetPoint" />
          </mxGeometry>
        </mxCell>
        <mxCell id="OI1ush0Sum9m7_NIzRbb-62" value="" style="endArrow=none;html=1;rounded=0;" edge="1" parent="1">
          <mxGeometry width="50" height="50" relative="1" as="geometry">
            <mxPoint x="392" y="254.5" as="sourcePoint" />
            <mxPoint x="406" y="244.5" as="targetPoint" />
          </mxGeometry>
        </mxCell>
        <mxCell id="OI1ush0Sum9m7_NIzRbb-63" value="1 bit" style="text;html=1;align=center;verticalAlign=middle;resizable=0;points=[];autosize=1;strokeColor=none;fillColor=none;fontSize=8;" vertex="1" parent="1">
          <mxGeometry x="395" y="245.5" width="40" height="20" as="geometry" />
        </mxCell>
        <mxCell id="OI1ush0Sum9m7_NIzRbb-64" value="" style="endArrow=none;html=1;rounded=0;" edge="1" parent="1">
          <mxGeometry width="50" height="50" relative="1" as="geometry">
            <mxPoint x="345" y="254.5" as="sourcePoint" />
            <mxPoint x="359" y="244.5" as="targetPoint" />
          </mxGeometry>
        </mxCell>
        <mxCell id="OI1ush0Sum9m7_NIzRbb-65" value="2 bits" style="text;html=1;align=center;verticalAlign=middle;resizable=0;points=[];autosize=1;strokeColor=none;fillColor=none;fontSize=8;" vertex="1" parent="1">
          <mxGeometry x="345" y="245.5" width="40" height="20" as="geometry" />
        </mxCell>
        <mxCell id="OI1ush0Sum9m7_NIzRbb-68" value="27 bits" style="text;html=1;align=center;verticalAlign=middle;resizable=0;points=[];autosize=1;strokeColor=none;fillColor=none;fontSize=8;" vertex="1" parent="1">
          <mxGeometry x="280" y="245.5" width="50" height="20" as="geometry" />
        </mxCell>
        <mxCell id="OI1ush0Sum9m7_NIzRbb-69" value="" style="endArrow=none;html=1;rounded=0;" edge="1" parent="1">
          <mxGeometry width="50" height="50" relative="1" as="geometry">
            <mxPoint x="282" y="254.5" as="sourcePoint" />
            <mxPoint x="296" y="244.5" as="targetPoint" />
          </mxGeometry>
        </mxCell>
        <mxCell id="OI1ush0Sum9m7_NIzRbb-70" value="Hit" style="text;html=1;align=center;verticalAlign=middle;resizable=0;points=[];autosize=1;strokeColor=none;fillColor=none;" vertex="1" parent="1">
          <mxGeometry x="401.5" y="610" width="40" height="30" as="geometry" />
        </mxCell>
        <mxCell id="OI1ush0Sum9m7_NIzRbb-75" value="Data, 4 bytes to processor" style="text;html=1;align=center;verticalAlign=middle;resizable=0;points=[];autosize=1;strokeColor=none;fillColor=none;fontSize=10;" vertex="1" parent="1">
          <mxGeometry x="498" y="610" width="140" height="30" as="geometry" />
        </mxCell>
        <mxCell id="OI1ush0Sum9m7_NIzRbb-77" value="" style="edgeStyle=segmentEdgeStyle;endArrow=classic;html=1;curved=0;rounded=0;endSize=8;startSize=8;exitX=1;exitY=0.5;exitDx=0;exitDy=0;" edge="1" parent="1" source="OI1ush0Sum9m7_NIzRbb-53" target="OI1ush0Sum9m7_NIzRbb-75">
          <mxGeometry width="50" height="50" relative="1" as="geometry">
            <mxPoint x="569" y="560" as="sourcePoint" />
            <mxPoint x="540" y="490" as="targetPoint" />
          </mxGeometry>
        </mxCell>
        <mxCell id="OI1ush0Sum9m7_NIzRbb-123" value="" style="edgeStyle=orthogonalEdgeStyle;rounded=0;orthogonalLoop=1;jettySize=auto;html=1;" edge="1" parent="1" source="OI1ush0Sum9m7_NIzRbb-78" target="OI1ush0Sum9m7_NIzRbb-70">
          <mxGeometry relative="1" as="geometry" />
        </mxCell>
        <mxCell id="OI1ush0Sum9m7_NIzRbb-78" value="" style="verticalLabelPosition=bottom;shadow=0;dashed=0;align=center;html=1;verticalAlign=top;shape=mxgraph.electrical.logic_gates.logic_gate;operation=and;rotation=90;" vertex="1" parent="1">
          <mxGeometry x="394" y="544" width="55" height="33" as="geometry" />
        </mxCell>
        <mxCell id="OI1ush0Sum9m7_NIzRbb-80" value="" style="endArrow=none;html=1;rounded=0;entryX=0.421;entryY=0.992;entryDx=0;entryDy=0;exitX=0;exitY=0.25;exitDx=0;exitDy=0;exitPerimeter=0;entryPerimeter=0;" edge="1" parent="1" source="OI1ush0Sum9m7_NIzRbb-78">
          <mxGeometry width="50" height="50" relative="1" as="geometry">
            <mxPoint x="430.75" y="533" as="sourcePoint" />
            <mxPoint x="449.74" y="479.76" as="targetPoint" />
            <Array as="points">
              <mxPoint x="430" y="500" />
              <mxPoint x="450" y="500" />
            </Array>
          </mxGeometry>
        </mxCell>
        <mxCell id="OI1ush0Sum9m7_NIzRbb-111" value="" style="endArrow=none;html=1;rounded=0;entryX=0.059;entryY=0.97;entryDx=0;entryDy=0;entryPerimeter=0;exitX=0;exitY=0.75;exitDx=0;exitDy=0;exitPerimeter=0;" edge="1" parent="1" source="OI1ush0Sum9m7_NIzRbb-78" target="OI1ush0Sum9m7_NIzRbb-15">
          <mxGeometry width="50" height="50" relative="1" as="geometry">
            <mxPoint x="413" y="530" as="sourcePoint" />
            <mxPoint x="431.9784615384615" y="391.6953333333333" as="targetPoint" />
            <Array as="points">
              <mxPoint x="413" y="430" />
              <mxPoint x="430" y="430" />
            </Array>
          </mxGeometry>
        </mxCell>
        <mxCell id="OI1ush0Sum9m7_NIzRbb-119" value="" style="endArrow=none;html=1;rounded=0;" edge="1" parent="1">
          <mxGeometry width="50" height="50" relative="1" as="geometry">
            <mxPoint x="463" y="407" as="sourcePoint" />
            <mxPoint x="477" y="397" as="targetPoint" />
          </mxGeometry>
        </mxCell>
        <mxCell id="OI1ush0Sum9m7_NIzRbb-120" value="&lt;font style=&quot;font-size: 4px;&quot;&gt;27 bits&lt;/font&gt;" style="text;html=1;align=center;verticalAlign=middle;resizable=0;points=[];autosize=1;strokeColor=none;fillColor=none;fontSize=8;" vertex="1" parent="1">
          <mxGeometry x="458" y="392" width="40" height="20" as="geometry" />
        </mxCell>
      </root>
    </mxGraphModel>
  </diagram>
</mxfile>
